# xmcd CD database file
#
# Track frame offsets:
#	150
#	17047
#	35992
#	51722
#	71247
#	90387
#	110027
#	129452
#	144480
#	161277
#	179655
#	196357
#	217057
#	234732
#
# Disc length: 3333 seconds
#
# Revision: 0
# Processed by: cddbd v1.5.1PL0 Copyright (c) Steve Scherf et al.
# Submitted via: CDex 1.51
#
DISCID=dc0d030e
DTITLE=庄野真代 - EXOTIC
DYEAR=1983
DGENRE=JPop
TTITLE0=お・ん・な無限大
TTITLE1=上海特急
TTITLE2=そして・蜃気楼
TTITLE3=逃亡者
TTITLE4=スローサンバ
TTITLE5=Hey Lady優しくなれるかい
TTITLE6=アデュー
TTITLE7=飛んでイスタンブール
TTITLE8=マスカレード
TTITLE9=中央フリー・ウェイ
TTITLE10=モンテカルロで乾杯
TTITLE11=シンガポール航海（マリーン）
TTITLE12=ピラミッド・ピラミッド
TTITLE13=メイドイントーキョー
EXTD=YEAR: 1983.11.21
EXTT0=
EXTT1=
EXTT2=
EXTT3=
EXTT4=
EXTT5=
EXTT6=
EXTT7=
EXTT8=
EXTT9=
EXTT10=
EXTT11=
EXTT12=
EXTT13=
PLAYORDER=
